<svg xmlns="http://www.w3.org/2000/svg" width="350mm" height="275mm" viewBox="0 0 1400 1100" font-family="Helvetica, Arial, sans-serif">
<title>LAYOUT A — ESSENZIALE - pianta Via Isonzo</title>
<defs>
  <pattern id="g50" width="40.0" height="40.0" patternUnits="userSpaceOnUse" x="174.0" y="224.0">
    <path d="M 40.0 0 L 0 0 0 40.0" fill="none" stroke="#d3dce6" stroke-width="0.4"/></pattern>
  <pattern id="g100" width="80.0" height="80.0" patternUnits="userSpaceOnUse" x="174.0" y="224.0">
    <rect width="80.0" height="80.0" fill="url(#g50)"/>
    <path d="M 80.0 0 L 0 0 0 80.0" fill="none" stroke="#bfccd9" stroke-width="0.7"/></pattern>
  <marker id="fr" viewBox="0 0 10 10" refX="5" refY="5" markerWidth="7" markerHeight="7" orient="auto-start-reverse">
    <path d="M 0 1 L 9 5 L 0 9 z" fill="#2e7d32"/></marker>
</defs>
<style>.lbl { font-weight:700; letter-spacing:1px; fill:#1d1d1d; } .dim line { stroke:#2b5d8a; stroke-width:0.7; } .dim .ext { stroke-width:0.45; } .dim .tick { stroke-width:1.3; } .dim text { fill:#2b5d8a; font-weight:600; }</style>
<rect width="1400" height="1100" fill="#fff"/>
<rect x="20" y="20" width="1360" height="1060" fill="none" stroke="#111" stroke-width="1.5"/>
<text x="50" y="68" font-size="30" class="lbl">LAYOUT A — ESSENZIALE</text>
<text x="50" y="98" font-size="15" fill="#555">Nessuna opera muraria · solo arredo · Via Isonzo · scala 1:50 (A3) · misure in metri, verifiche in cm</text>
<rect x="174.0" y="224.0" width="468.0" height="780.0" fill="#fbfaf7"/>
<rect x="174.0" y="224.0" width="468.0" height="780.0" fill="url(#g100)"/>
<rect x="150.0" y="200.0" width="516.0" height="24.0" fill="#262626"/>
<rect x="150.0" y="1004.0" width="516.0" height="24.0" fill="#262626"/>
<rect x="150.0" y="200.0" width="24.0" height="828.0" fill="#262626"/>
<rect x="642.0" y="200.0" width="24.0" height="828.0" fill="#262626"/>
<g id="layout">
<rect x="374.0" y="224.0" width="8.0" height="352.0" fill="#262626"/>
<rect x="374.0" y="576.0" width="8.0" height="256.0" fill="#262626"/>
<rect x="374.0" y="832.0" width="8.0" height="172.0" fill="#262626"/>
<rect x="174.0" y="440.0" width="200.0" height="8.0" fill="#262626"/>
<rect x="382.0" y="568.0" width="260.0" height="8.0" fill="#262626"/>
<rect x="382.0" y="824.0" width="260.0" height="8.0" fill="#262626"/>
<rect x="150.0" y="288.0" width="24.0" height="72.0" fill="#ffffff"/>
<rect x="150.0" y="288.0" width="24.0" height="72.0" fill="#dbeafb" stroke="#1565c0" stroke-width="2"/>
<line x1="159.6" y1="288.0" x2="159.6" y2="360.0" stroke="#1565c0" stroke-width="1.2"/>
<line x1="164.4" y1="288.0" x2="164.4" y2="360.0" stroke="#1565c0" stroke-width="1.2"/>
<line x1="174.0" y1="288.0" x2="246.0" y2="288.0" stroke="#1565c0" stroke-width="1" stroke-dasharray="4 3"/>
<path d="M 246.0 288.0 A 72.0 72.0 0 0 1 174.0 360.0" fill="none" stroke="#1565c0" stroke-width="0.8" stroke-dasharray="4 3"/>
<rect x="150.0" y="528.0" width="24.0" height="80.0" fill="#ffffff"/>
<rect x="150.0" y="528.0" width="24.0" height="80.0" fill="#dbeafb" stroke="#1565c0" stroke-width="2"/>
<line x1="159.6" y1="528.0" x2="159.6" y2="608.0" stroke="#1565c0" stroke-width="1.2"/>
<line x1="164.4" y1="528.0" x2="164.4" y2="608.0" stroke="#1565c0" stroke-width="1.2"/>
<line x1="174.0" y1="528.0" x2="254.0" y2="528.0" stroke="#1565c0" stroke-width="1" stroke-dasharray="4 3"/>
<path d="M 254.0 528.0 A 80.0 80.0 0 0 1 174.0 608.0" fill="none" stroke="#1565c0" stroke-width="0.8" stroke-dasharray="4 3"/>
<rect x="642.0" y="328.0" width="24.0" height="96.0" fill="#ffffff"/>
<rect x="642.0" y="328.0" width="24.0" height="96.0" fill="#dbeafb" stroke="#1565c0" stroke-width="2"/>
<line x1="651.6" y1="328.0" x2="651.6" y2="424.0" stroke="#1565c0" stroke-width="1.2"/>
<line x1="656.4" y1="328.0" x2="656.4" y2="424.0" stroke="#1565c0" stroke-width="1.2"/>
<line x1="642.0" y1="328.0" x2="594.0" y2="328.0" stroke="#1565c0" stroke-width="1" stroke-dasharray="4 3"/>
<path d="M 594.0 328.0 A 48.0 48.0 0 0 0 642.0 376.0" fill="none" stroke="#1565c0" stroke-width="0.8" stroke-dasharray="4 3"/>
<line x1="642.0" y1="424.0" x2="594.0" y2="424.0" stroke="#1565c0" stroke-width="1" stroke-dasharray="4 3"/>
<path d="M 594.0 424.0 A 48.0 48.0 0 0 1 642.0 376.0" fill="none" stroke="#1565c0" stroke-width="0.8" stroke-dasharray="4 3"/>
<rect x="642.0" y="668.0" width="24.0" height="80.0" fill="#ffffff"/>
<rect x="642.0" y="668.0" width="24.0" height="80.0" fill="#dbeafb" stroke="#1565c0" stroke-width="2"/>
<line x1="651.6" y1="668.0" x2="651.6" y2="748.0" stroke="#1565c0" stroke-width="1.2"/>
<line x1="656.4" y1="668.0" x2="656.4" y2="748.0" stroke="#1565c0" stroke-width="1.2"/>
<line x1="642.0" y1="668.0" x2="602.0" y2="668.0" stroke="#1565c0" stroke-width="1" stroke-dasharray="4 3"/>
<path d="M 602.0 668.0 A 40.0 40.0 0 0 0 642.0 708.0" fill="none" stroke="#1565c0" stroke-width="0.8" stroke-dasharray="4 3"/>
<line x1="642.0" y1="748.0" x2="602.0" y2="748.0" stroke="#1565c0" stroke-width="1" stroke-dasharray="4 3"/>
<path d="M 602.0 748.0 A 40.0 40.0 0 0 1 642.0 708.0" fill="none" stroke="#1565c0" stroke-width="0.8" stroke-dasharray="4 3"/>
<rect x="642.0" y="856.0" width="24.0" height="72.0" fill="#ffffff"/>
<rect x="642.0" y="856.0" width="24.0" height="72.0" fill="#dbeafb" stroke="#1565c0" stroke-width="2"/>
<line x1="651.6" y1="856.0" x2="651.6" y2="928.0" stroke="#1565c0" stroke-width="1.2"/>
<line x1="656.4" y1="856.0" x2="656.4" y2="928.0" stroke="#1565c0" stroke-width="1.2"/>
<line x1="642.0" y1="856.0" x2="570.0" y2="856.0" stroke="#1565c0" stroke-width="1" stroke-dasharray="4 3"/>
<path d="M 570.0 856.0 A 72.0 72.0 0 0 0 642.0 928.0" fill="none" stroke="#1565c0" stroke-width="0.8" stroke-dasharray="4 3"/>
<g transform="translate(182.0,224.0) scale(0.8)"><g transform=""><rect x="0" y="0" width="80" height="50" rx="2" fill="#e3eff9" stroke="#5a5a5a" stroke-width="1.6"/><ellipse cx="40.0" cy="28.0" rx="30.0" ry="16.0" fill="#fff" stroke="#5a5a5a" stroke-width="1.6"/><circle cx="40.0" cy="6" r="2.5" fill="#fff" stroke="#5a5a5a" stroke-width="1"/></g></g>
<g transform="translate(246.0,224.0) scale(0.8)"><g transform=""><rect x="0" y="0" width="60" height="60" rx="2" fill="#e3eff9" stroke="#5a5a5a" stroke-width="1.6"/><circle cx="30.0" cy="32.0" r="20.0" fill="#fff" stroke="#5a5a5a" stroke-width="1.2"/><text x="30.0" y="32.0" font-size="11" text-anchor="middle" dominant-baseline="middle" font-weight="700" fill="#fff" stroke="#fff" stroke-width="3" stroke-linejoin="round">LV</text><text x="30.0" y="32.0" font-size="11" text-anchor="middle" dominant-baseline="middle" font-weight="700" fill="#333">LV</text></g></g>
<g transform="translate(294.0,224.0) scale(0.8)"><g transform=""><rect x="0" y="0" width="100" height="80" rx="2" fill="#e3eff9" stroke="#5a5a5a" stroke-width="1.6"/><line x1="0" y1="0" x2="100" y2="80" stroke="#5a5a5a" stroke-width="0.7"/><line x1="100" y1="0" x2="0" y2="80" stroke="#5a5a5a" stroke-width="0.7"/><circle cx="50.0" cy="40.0" r="4" fill="#fff" stroke="#5a5a5a" stroke-width="1"/><text x="50.0" y="68" font-size="10" text-anchor="middle" dominant-baseline="middle" fill="#fff" stroke="#fff" stroke-width="3" stroke-linejoin="round">doccia 100×80</text><text x="50.0" y="68" font-size="10" text-anchor="middle" dominant-baseline="middle" fill="#333">doccia 100×80</text></g></g>
<g transform="translate(174.0,336.8) scale(0.8)"><g transform="translate(0,38) rotate(270)"><rect x="4" y="0" width="30" height="10" rx="2" fill="#e3eff9" stroke="#5a5a5a" stroke-width="1.6"/><ellipse cx="19.0" cy="32.5" rx="18.0" ry="21.5" fill="#fff" stroke="#5a5a5a" stroke-width="1.6"/><circle cx="19.0" cy="20" r="2.5" fill="#fff" stroke="#5a5a5a" stroke-width="1"/></g></g>
<g transform="translate(174.0,388.8) scale(0.8)"><g transform="translate(0,38) rotate(270)"><rect x="2" y="0" width="34" height="18" rx="2" fill="#e3eff9" stroke="#5a5a5a" stroke-width="1.6"/><ellipse cx="19.0" cy="36.5" rx="18.0" ry="17.5" fill="#fff" stroke="#5a5a5a" stroke-width="1.6"/></g></g>
<g transform="translate(432.0,292.0) scale(0.8)"><g transform=""><rect x="0" y="0" width="200" height="140" rx="0" fill="#f5ecdc" stroke="#5a5a5a" stroke-width="1.6" stroke-dasharray="8 5"/><rect x="8" y="8" width="184" height="124" rx="0" fill="none" stroke="#5a5a5a" stroke-width="0.8"/><text x="100.0" y="63.4" font-size="11" text-anchor="middle" dominant-baseline="middle" font-weight="700" fill="#fff" stroke="#fff" stroke-width="3" stroke-linejoin="round">tappeto</text><text x="100.0" y="63.4" font-size="11" text-anchor="middle" dominant-baseline="middle" font-weight="700" fill="#333">tappeto</text><text x="100.0" y="77.15" font-size="11" text-anchor="middle" dominant-baseline="middle" fill="#fff" stroke="#fff" stroke-width="3" stroke-linejoin="round">200×140</text><text x="100.0" y="77.15" font-size="11" text-anchor="middle" dominant-baseline="middle" fill="#333">200×140</text></g></g>
<g transform="translate(440.0,224.0) scale(0.8)"><g transform=""><rect x="0" y="0" width="180" height="40" rx="2" fill="#f5ecdc" stroke="#5a5a5a" stroke-width="1.6"/><rect x="32.4" y="4" width="115.2" height="5" rx="1" fill="#222" stroke="#5a5a5a" stroke-width="1.6"/><text x="90.0" y="18.4" font-size="11" text-anchor="middle" dominant-baseline="middle" font-weight="700" fill="#fff" stroke="#fff" stroke-width="3" stroke-linejoin="round">mobile TV</text><text x="90.0" y="18.4" font-size="11" text-anchor="middle" dominant-baseline="middle" font-weight="700" fill="#333">mobile TV</text><text x="90.0" y="32.15" font-size="11" text-anchor="middle" dominant-baseline="middle" fill="#fff" stroke="#fff" stroke-width="3" stroke-linejoin="round">180×40</text><text x="90.0" y="32.15" font-size="11" text-anchor="middle" dominant-baseline="middle" fill="#333">180×40</text></g></g>
<g transform="translate(472.0,312.0) scale(0.8)"><g transform=""><rect x="0" y="0" width="100" height="50" rx="3" fill="#f5ecdc" stroke="#5a5a5a" stroke-width="1.6"/><text x="50.0" y="18.4" font-size="11" text-anchor="middle" dominant-baseline="middle" font-weight="700" fill="#fff" stroke="#fff" stroke-width="3" stroke-linejoin="round">tavolino</text><text x="50.0" y="18.4" font-size="11" text-anchor="middle" dominant-baseline="middle" font-weight="700" fill="#333">tavolino</text><text x="50.0" y="32.15" font-size="11" text-anchor="middle" dominant-baseline="middle" fill="#fff" stroke="#fff" stroke-width="3" stroke-linejoin="round">100×50</text><text x="50.0" y="32.15" font-size="11" text-anchor="middle" dominant-baseline="middle" fill="#333">100×50</text></g></g>
<g transform="translate(424.0,384.0) scale(0.8)"><g transform="translate(220,90) rotate(180)"><rect x="0" y="0" width="220" height="90" rx="2" fill="#f5ecdc" stroke="#5a5a5a" stroke-width="1.6"/><rect x="0" y="0" width="220" height="22" rx="2" fill="#e6d8bf" stroke="#5a5a5a" stroke-width="1.6"/><rect x="0" y="0" width="20" height="90" rx="2" fill="#e6d8bf" stroke="#5a5a5a" stroke-width="1.6"/><rect x="200" y="0" width="20" height="90" rx="2" fill="#e6d8bf" stroke="#5a5a5a" stroke-width="1.6"/><line x1="80.0" y1="22" x2="80.0" y2="86" stroke="#5a5a5a" stroke-width="0.96"/><line x1="140.0" y1="22" x2="140.0" y2="86" stroke="#5a5a5a" stroke-width="0.96"/><text x="110.0" y="62.6" font-size="11" text-anchor="middle" dominant-baseline="middle" font-weight="700" transform="rotate(180 110.0 62.6)" fill="#fff" stroke="#fff" stroke-width="3" stroke-linejoin="round">divano 3 posti</text><text x="110.0" y="62.6" font-size="11" text-anchor="middle" dominant-baseline="middle" font-weight="700" transform="rotate(180 110.0 62.6)" fill="#333">divano 3 posti</text><text x="110.0" y="48.85" font-size="11" text-anchor="middle" dominant-baseline="middle" transform="rotate(180 110.0 48.85)" fill="#fff" stroke="#fff" stroke-width="3" stroke-linejoin="round">220×90</text><text x="110.0" y="48.85" font-size="11" text-anchor="middle" dominant-baseline="middle" transform="rotate(180 110.0 48.85)" fill="#333">220×90</text></g></g>
<g transform="translate(386.0,288.0) scale(0.8)"><g transform="translate(0,80) rotate(270)"><rect x="0" y="0" width="80" height="80" rx="6" fill="#f5ecdc" stroke="#5a5a5a" stroke-width="1.6"/><rect x="0" y="0" width="80" height="20" rx="6" fill="#e6d8bf" stroke="#5a5a5a" stroke-width="1.6"/><rect x="0" y="0" width="16" height="80" rx="6" fill="#e6d8bf" stroke="#5a5a5a" stroke-width="1.6"/><rect x="64" y="0" width="16" height="80" rx="6" fill="#e6d8bf" stroke="#5a5a5a" stroke-width="1.6"/></g></g>
<g transform="translate(518.0,540.0) scale(0.8)"><g transform="translate(100,35) rotate(180)"><rect x="0" y="0" width="100" height="35" rx="2" fill="#f5ecdc" stroke="#5a5a5a" stroke-width="1.6"/><line x1="50.0" y1="0" x2="50.0" y2="35" stroke="#5a5a5a" stroke-width="0.96"/><line x1="0" y1="0" x2="100" y2="35" stroke="#5a5a5a" stroke-width="0.6"/><line x1="100" y1="0" x2="0" y2="35" stroke="#5a5a5a" stroke-width="0.6"/></g></g>
<g transform="translate(448.0,576.0) scale(0.8)"><g transform=""><rect x="0" y="0" width="160" height="200" rx="2" fill="#eee8f7" stroke="#5a5a5a" stroke-width="1.6"/><rect x="0" y="0" width="160" height="8" rx="1" fill="#d6cce6" stroke="#5a5a5a" stroke-width="1.6"/><rect x="10.0" y="14" width="67.0" height="34" rx="6" fill="#fff" stroke="#5a5a5a" stroke-width="1.6"/><rect x="83.0" y="14" width="67.0" height="34" rx="6" fill="#fff" stroke="#5a5a5a" stroke-width="1.6"/><line x1="0" y1="72" x2="160" y2="72" stroke="#5a5a5a" stroke-width="0.96"/><line x1="0" y1="72" x2="18" y2="90" stroke="#5a5a5a" stroke-width="0.96" stroke-dasharray="4 3"/><text x="80.0" y="129.4" font-size="11" text-anchor="middle" dominant-baseline="middle" font-weight="700" fill="#fff" stroke="#fff" stroke-width="3" stroke-linejoin="round">letto matrimoniale</text><text x="80.0" y="129.4" font-size="11" text-anchor="middle" dominant-baseline="middle" font-weight="700" fill="#333">letto matrimoniale</text><text x="80.0" y="143.15" font-size="11" text-anchor="middle" dominant-baseline="middle" fill="#fff" stroke="#fff" stroke-width="3" stroke-linejoin="round">160×200</text><text x="80.0" y="143.15" font-size="11" text-anchor="middle" dominant-baseline="middle" fill="#333">160×200</text></g></g>
<g transform="translate(412.0,576.0) scale(0.8)"><g transform=""><rect x="0" y="0" width="45" height="40" rx="2" fill="#eee8f7" stroke="#5a5a5a" stroke-width="1.6"/><line x1="4" y1="32" x2="41" y2="32" stroke="#5a5a5a" stroke-width="0.96"/><circle cx="22.5" cy="24" r="2.5" fill="#fff" stroke="#5a5a5a" stroke-width="1"/></g></g>
<g transform="translate(576.0,576.0) scale(0.8)"><g transform=""><rect x="0" y="0" width="45" height="40" rx="2" fill="#eee8f7" stroke="#5a5a5a" stroke-width="1.6"/><line x1="4" y1="32" x2="41" y2="32" stroke="#5a5a5a" stroke-width="0.96"/><circle cx="22.5" cy="24" r="2.5" fill="#fff" stroke="#5a5a5a" stroke-width="1"/></g></g>
<g transform="translate(174.0,520.0) scale(0.8)"><g transform=""><rect x="0" y="0" width="80" height="120" rx="3" fill="#f5ecdc" stroke="#5a5a5a" stroke-width="1.6"/><text x="40.0" y="53.4" font-size="11" text-anchor="middle" dominant-baseline="middle" font-weight="700" fill="#fff" stroke="#fff" stroke-width="3" stroke-linejoin="round">tavolo</text><text x="40.0" y="53.4" font-size="11" text-anchor="middle" dominant-baseline="middle" font-weight="700" fill="#333">tavolo</text><text x="40.0" y="67.15" font-size="11" text-anchor="middle" dominant-baseline="middle" fill="#fff" stroke="#fff" stroke-width="3" stroke-linejoin="round">80×120</text><text x="40.0" y="67.15" font-size="11" text-anchor="middle" dominant-baseline="middle" fill="#333">80×120</text></g></g>
<g transform="translate(242.0,528.0) scale(0.8)"><g transform="translate(50,0) rotate(90)"><rect x="3" y="8" width="39" height="40" rx="4" fill="#eee8f7" stroke="#5a5a5a" stroke-width="1.6"/><rect x="2" y="0" width="41" height="8" rx="2" fill="#d8d8d8" stroke="#5a5a5a" stroke-width="1.6"/></g></g>
<g transform="translate(242.0,572.0) scale(0.8)"><g transform="translate(50,0) rotate(90)"><rect x="3" y="8" width="39" height="40" rx="4" fill="#eee8f7" stroke="#5a5a5a" stroke-width="1.6"/><rect x="2" y="0" width="41" height="8" rx="2" fill="#d8d8d8" stroke="#5a5a5a" stroke-width="1.6"/></g></g>
<g transform="translate(188.0,480.0) scale(0.8)"><g transform=""><rect x="3" y="8" width="39" height="40" rx="4" fill="#eee8f7" stroke="#5a5a5a" stroke-width="1.6"/><rect x="2" y="0" width="41" height="8" rx="2" fill="#d8d8d8" stroke="#5a5a5a" stroke-width="1.6"/></g></g>
<g transform="translate(188.0,616.0) scale(0.8)"><g transform="translate(45,50) rotate(180)"><rect x="3" y="8" width="39" height="40" rx="4" fill="#eee8f7" stroke="#5a5a5a" stroke-width="1.6"/><rect x="2" y="0" width="41" height="8" rx="2" fill="#d8d8d8" stroke="#5a5a5a" stroke-width="1.6"/></g></g>
<g transform="translate(174.0,676.0) scale(0.8)"><g transform="translate(0,200) rotate(270)"><rect x="0" y="0" width="200" height="60" rx="2" fill="#eee8f7" stroke="#5a5a5a" stroke-width="1.6"/><line x1="0" y1="54" x2="200" y2="54" stroke="#5a5a5a" stroke-width="0.96"/><line x1="50.0" y1="54" x2="50.0" y2="60" stroke="#5a5a5a" stroke-width="0.96"/><line x1="100.0" y1="54" x2="100.0" y2="60" stroke="#5a5a5a" stroke-width="0.96"/><line x1="150.0" y1="54" x2="150.0" y2="60" stroke="#5a5a5a" stroke-width="0.96"/><line x1="6" y1="26.0" x2="194" y2="26.0" stroke="#5a5a5a" stroke-width="0.96" stroke-dasharray="6 4"/><line x1="13.0" y1="16.0" x2="37.0" y2="36.0" stroke="#5a5a5a" stroke-width="0.8"/><line x1="63.0" y1="16.0" x2="87.0" y2="36.0" stroke="#5a5a5a" stroke-width="0.8"/><line x1="113.0" y1="16.0" x2="137.0" y2="36.0" stroke="#5a5a5a" stroke-width="0.8"/><line x1="163.0" y1="16.0" x2="187.0" y2="36.0" stroke="#5a5a5a" stroke-width="0.8"/><text x="100.0" y="35.4" font-size="11" text-anchor="middle" dominant-baseline="middle" font-weight="700" fill="#fff" stroke="#fff" stroke-width="3" stroke-linejoin="round">armadio 4 ante</text><text x="100.0" y="35.4" font-size="11" text-anchor="middle" dominant-baseline="middle" font-weight="700" fill="#333">armadio 4 ante</text><text x="100.0" y="49.15" font-size="11" text-anchor="middle" dominant-baseline="middle" fill="#fff" stroke="#fff" stroke-width="3" stroke-linejoin="round">200×60</text><text x="100.0" y="49.15" font-size="11" text-anchor="middle" dominant-baseline="middle" fill="#333">200×60</text></g></g>
<g transform="translate(174.0,844.0) scale(0.8)"><g transform="translate(0,100) rotate(270)"><rect x="0" y="0" width="100" height="35" rx="2" fill="#f2eee5" stroke="#5a5a5a" stroke-width="1.6"/><text x="50.0" y="10.9" font-size="11" text-anchor="middle" dominant-baseline="middle" font-weight="700" fill="#fff" stroke="#fff" stroke-width="3" stroke-linejoin="round">scarpiera</text><text x="50.0" y="10.9" font-size="11" text-anchor="middle" dominant-baseline="middle" font-weight="700" fill="#333">scarpiera</text><text x="50.0" y="24.65" font-size="11" text-anchor="middle" dominant-baseline="middle" fill="#fff" stroke="#fff" stroke-width="3" stroke-linejoin="round">100×35</text><text x="50.0" y="24.65" font-size="11" text-anchor="middle" dominant-baseline="middle" fill="#333">100×35</text></g></g>
<g transform="translate(350.0,720.0) scale(0.8)"><g transform="translate(30,0) rotate(90)"><rect x="0" y="0" width="100" height="30" rx="2" fill="#f2eee5" stroke="#5a5a5a" stroke-width="1.6"/><text x="50.0" y="8.4" font-size="11" text-anchor="middle" dominant-baseline="middle" font-weight="700" fill="#fff" stroke="#fff" stroke-width="3" stroke-linejoin="round">consolle</text><text x="50.0" y="8.4" font-size="11" text-anchor="middle" dominant-baseline="middle" font-weight="700" fill="#333">consolle</text><text x="50.0" y="22.15" font-size="11" text-anchor="middle" dominant-baseline="middle" fill="#fff" stroke="#fff" stroke-width="3" stroke-linejoin="round">100×30</text><text x="50.0" y="22.15" font-size="11" text-anchor="middle" dominant-baseline="middle" fill="#333">100×30</text></g></g>
<g transform="translate(338.0,964.0) scale(0.8)"><g transform=""><circle cx="20.0" cy="20.0" r="19.0" fill="#eef3ea" stroke="#5a5a5a" stroke-width="1.2"/><ellipse cx="20.0" cy="11.2" rx="3.5999999999999996" ry="8.0" fill="#b9d6ad" stroke="#6e8f63" stroke-width="0.8" transform="rotate(0 20.0 20.0)"/><ellipse cx="20.0" cy="11.2" rx="3.5999999999999996" ry="8.0" fill="#b9d6ad" stroke="#6e8f63" stroke-width="0.8" transform="rotate(45 20.0 20.0)"/><ellipse cx="20.0" cy="11.2" rx="3.5999999999999996" ry="8.0" fill="#b9d6ad" stroke="#6e8f63" stroke-width="0.8" transform="rotate(90 20.0 20.0)"/><ellipse cx="20.0" cy="11.2" rx="3.5999999999999996" ry="8.0" fill="#b9d6ad" stroke="#6e8f63" stroke-width="0.8" transform="rotate(135 20.0 20.0)"/><ellipse cx="20.0" cy="11.2" rx="3.5999999999999996" ry="8.0" fill="#b9d6ad" stroke="#6e8f63" stroke-width="0.8" transform="rotate(180 20.0 20.0)"/><ellipse cx="20.0" cy="11.2" rx="3.5999999999999996" ry="8.0" fill="#b9d6ad" stroke="#6e8f63" stroke-width="0.8" transform="rotate(225 20.0 20.0)"/><ellipse cx="20.0" cy="11.2" rx="3.5999999999999996" ry="8.0" fill="#b9d6ad" stroke="#6e8f63" stroke-width="0.8" transform="rotate(270 20.0 20.0)"/><ellipse cx="20.0" cy="11.2" rx="3.5999999999999996" ry="8.0" fill="#b9d6ad" stroke="#6e8f63" stroke-width="0.8" transform="rotate(315 20.0 20.0)"/></g></g>
<g transform="translate(482.0,952.0) scale(0.8)"><g transform="translate(60,65) rotate(180)"><rect x="0" y="0" width="60" height="65" rx="2" fill="#e6f2e6" stroke="#5a5a5a" stroke-width="1.6"/><line x1="0" y1="61" x2="60" y2="61" stroke="#5a5a5a" stroke-width="0.96"/><line x1="0" y1="0" x2="60" y2="61" stroke="#5a5a5a" stroke-width="0.6"/><text x="30.0" y="30.5" font-size="13" text-anchor="middle" dominant-baseline="middle" font-weight="700" transform="rotate(180 30.0 30.5)" fill="#fff" stroke="#fff" stroke-width="3" stroke-linejoin="round">FR</text><text x="30.0" y="30.5" font-size="13" text-anchor="middle" dominant-baseline="middle" font-weight="700" transform="rotate(180 30.0 30.5)" fill="#333">FR</text></g></g>
<g transform="translate(530.0,956.0) scale(0.8)"><g transform="translate(80,60) rotate(180)"><rect x="0" y="0" width="80" height="60" rx="2" fill="#e6f2e6" stroke="#5a5a5a" stroke-width="1.6"/><line x1="0" y1="56" x2="80" y2="56" stroke="#5a5a5a" stroke-width="0.96"/><rect x="8" y="12" width="64" height="36" rx="8" fill="#fff" stroke="#5a5a5a" stroke-width="1.6"/><circle cx="40.0" cy="7" r="2.5" fill="#fff" stroke="#5a5a5a" stroke-width="1"/><circle cx="40.0" cy="32.0" r="3" fill="#fff" stroke="#5a5a5a" stroke-width="1"/></g></g>
<g transform="translate(594.0,956.0) scale(0.8)"><g transform="translate(60,60) rotate(180)"><rect x="0" y="0" width="60" height="60" rx="2" fill="#e6f2e6" stroke="#5a5a5a" stroke-width="1.6"/><line x1="0" y1="56" x2="60" y2="56" stroke="#5a5a5a" stroke-width="0.96"/><circle cx="18.0" cy="18.0" r="9" fill="#fff" stroke="#5a5a5a" stroke-width="1.2"/><circle cx="42.0" cy="18.0" r="7" fill="#fff" stroke="#5a5a5a" stroke-width="1.2"/><circle cx="18.0" cy="40.800000000000004" r="7" fill="#fff" stroke="#5a5a5a" stroke-width="1.2"/><circle cx="42.0" cy="40.800000000000004" r="10" fill="#fff" stroke="#5a5a5a" stroke-width="1.2"/></g></g>
<g transform="translate(594.0,836.0) scale(0.8)"><g transform="translate(60,0) rotate(90)"><rect x="0" y="0" width="60" height="60" rx="2" fill="#e6f2e6" stroke="#5a5a5a" stroke-width="1.6"/><line x1="0" y1="56" x2="60" y2="56" stroke="#5a5a5a" stroke-width="0.96"/><text x="30.0" y="21.4" font-size="11" text-anchor="middle" dominant-baseline="middle" font-weight="700" fill="#fff" stroke="#fff" stroke-width="3" stroke-linejoin="round">base</text><text x="30.0" y="21.4" font-size="11" text-anchor="middle" dominant-baseline="middle" font-weight="700" fill="#333">base</text><text x="30.0" y="35.15" font-size="11" text-anchor="middle" dominant-baseline="middle" fill="#fff" stroke="#fff" stroke-width="3" stroke-linejoin="round">60×60</text><text x="30.0" y="35.15" font-size="11" text-anchor="middle" dominant-baseline="middle" fill="#333">60×60</text></g></g>
<g transform="translate(594.0,884.0) scale(0.8)"><g transform="translate(60,0) rotate(90)"><rect x="0" y="0" width="60" height="60" rx="2" fill="#e6f2e6" stroke="#5a5a5a" stroke-width="1.6"/><line x1="0" y1="56" x2="60" y2="56" stroke="#5a5a5a" stroke-width="0.96"/><line x1="0" y1="0" x2="60" y2="56" stroke="#5a5a5a" stroke-width="0.6"/><text x="30.0" y="28.0" font-size="13" text-anchor="middle" dominant-baseline="middle" font-weight="700" fill="#fff" stroke="#fff" stroke-width="3" stroke-linejoin="round">LS</text><text x="30.0" y="28.0" font-size="13" text-anchor="middle" dominant-baseline="middle" font-weight="700" fill="#333">LS</text></g></g>
<g transform="translate(594.0,932.0) scale(0.8)"><g transform=""><rect x="0" y="0" width="60" height="30" rx="2" fill="#e6f2e6" stroke="#5a5a5a" stroke-width="1.6"/><text x="30.0" y="8.4" font-size="11" text-anchor="middle" dominant-baseline="middle" font-weight="700" fill="#fff" stroke="#fff" stroke-width="3" stroke-linejoin="round"></text><text x="30.0" y="8.4" font-size="11" text-anchor="middle" dominant-baseline="middle" font-weight="700" fill="#333"></text><text x="30.0" y="22.15" font-size="11" text-anchor="middle" dominant-baseline="middle" fill="#fff" stroke="#fff" stroke-width="3" stroke-linejoin="round">60×30</text><text x="30.0" y="22.15" font-size="11" text-anchor="middle" dominant-baseline="middle" fill="#333">60×30</text></g></g>
<rect x="298.0" y="440.0" width="64.0" height="8.0" fill="#ffffff"/>
<rect x="296.4" y="442.0" width="67.2" height="4.0" fill="#c62828"/>
<line x1="234.0" y1="444.0" x2="298.0" y2="444.0" stroke="#c62828" stroke-width="1.2" stroke-dasharray="4 3"/>
<line x1="298.0" y1="440.0" x2="298.0" y2="448.0" stroke="#262626" stroke-width="1.5"/>
<line x1="362.0" y1="440.0" x2="362.0" y2="448.0" stroke="#262626" stroke-width="1.5"/>
<rect x="374.0" y="492.0" width="8.0" height="64.0" fill="#ffffff"/>
<line x1="374.0" y1="492.0" x2="382.0" y2="492.0" stroke="#262626" stroke-width="1.5"/>
<line x1="374.0" y1="556.0" x2="382.0" y2="556.0" stroke="#262626" stroke-width="1.5"/>
<line x1="382.0" y1="556.0" x2="446.0" y2="556.0" stroke="#c62828" stroke-width="2.5"/>
<path d="M 446.0 556.0 A 64.0 64.0 0 0 0 382.0 492.0" fill="none" stroke="#c62828" stroke-width="1" stroke-dasharray="5 3"/>
<rect x="374.0" y="584.0" width="8.0" height="64.0" fill="#fff"/>
<line x1="374.0" y1="584.0" x2="382.0" y2="584.0" stroke="#262626" stroke-width="1.5"/>
<line x1="374.0" y1="648.0" x2="382.0" y2="648.0" stroke="#262626" stroke-width="1.5"/>
<rect x="367.6" y="584.0" width="4.8" height="64.0" fill="#c62828"/>
<rect x="367.6" y="648.0" width="4.8" height="64.0" fill="none" stroke="#c62828" stroke-width="1" stroke-dasharray="4 3"/>
<rect x="374.0" y="844.0" width="8.0" height="64.0" fill="#ffffff"/>
<line x1="374.0" y1="844.0" x2="382.0" y2="844.0" stroke="#262626" stroke-width="1.5"/>
<line x1="374.0" y1="908.0" x2="382.0" y2="908.0" stroke="#262626" stroke-width="1.5"/>
<line x1="382.0" y1="844.0" x2="446.0" y2="844.0" stroke="#c62828" stroke-width="2.5"/>
<path d="M 446.0 844.0 A 64.0 64.0 0 0 1 382.0 908.0" fill="none" stroke="#c62828" stroke-width="1" stroke-dasharray="5 3"/>
<rect x="246.0" y="1004.0" width="80.0" height="24.0" fill="#ffffff"/>
<line x1="246.0" y1="1004.0" x2="246.0" y2="1028.0" stroke="#262626" stroke-width="1.5"/>
<line x1="326.0" y1="1004.0" x2="326.0" y2="1028.0" stroke="#262626" stroke-width="1.5"/>
<line x1="326.0" y1="1004.0" x2="326.0" y2="924.0" stroke="#c62828" stroke-width="2.5"/>
<path d="M 326.0 924.0 A 80.0 80.0 0 0 0 246.0 1004.0" fill="none" stroke="#c62828" stroke-width="1" stroke-dasharray="5 3"/>
<rect x="398.0" y="1004.0" width="72.0" height="24.0" fill="#ffffff"/>
<line x1="398.0" y1="1004.0" x2="398.0" y2="1028.0" stroke="#262626" stroke-width="1.5"/>
<line x1="470.0" y1="1004.0" x2="470.0" y2="1028.0" stroke="#262626" stroke-width="1.5"/>
<line x1="398.0" y1="1004.0" x2="398.0" y2="932.0" stroke="#c62828" stroke-width="2.5"/>
<path d="M 398.0 932.0 A 72.0 72.0 0 0 1 470.0 1004.0" fill="none" stroke="#c62828" stroke-width="1" stroke-dasharray="5 3"/>
<line x1="282.0" y1="552.0" x2="374.0" y2="552.0" stroke="#2e7d32" stroke-width="1.4" marker-start="url(#fr)" marker-end="url(#fr)"/>
<rect x="313.5" y="544.0" width="29" height="16" rx="8" fill="#2e7d32"/><text x="328.0" y="552.5" font-size="10.5" font-weight="700" fill="#fff" text-anchor="middle" dominant-baseline="middle">115</text>
<line x1="222.0" y1="760.0" x2="350.0" y2="760.0" stroke="#2e7d32" stroke-width="1.4" marker-start="url(#fr)" marker-end="url(#fr)"/>
<rect x="271.5" y="752.0" width="29" height="16" rx="8" fill="#2e7d32"/><text x="286.0" y="760.5" font-size="10.5" font-weight="700" fill="#fff" text-anchor="middle" dominant-baseline="middle">160</text>
<line x1="570.0" y1="256.0" x2="570.0" y2="384.0" stroke="#2e7d32" stroke-width="1.4" marker-start="url(#fr)" marker-end="url(#fr)"/>
<rect x="555.5" y="312.0" width="29" height="16" rx="8" fill="#2e7d32"/><text x="570.0" y="320.5" font-size="10.5" font-weight="700" fill="#fff" text-anchor="middle" dominant-baseline="middle">160</text>
<line x1="512.0" y1="736.0" x2="512.0" y2="824.0" stroke="#2e7d32" stroke-width="1.4" marker-start="url(#fr)" marker-end="url(#fr)"/>
<rect x="497.5" y="772.0" width="29" height="16" rx="8" fill="#2e7d32"/><text x="512.0" y="780.5" font-size="10.5" font-weight="700" fill="#fff" text-anchor="middle" dominant-baseline="middle">110</text>
<line x1="576.0" y1="664.0" x2="642.0" y2="664.0" stroke="#2e7d32" stroke-width="1.4" marker-start="url(#fr)" marker-end="url(#fr)"/>
<rect x="598.0" y="656.0" width="22" height="16" rx="8" fill="#2e7d32"/><text x="609.0" y="664.5" font-size="10.5" font-weight="700" fill="#fff" text-anchor="middle" dominant-baseline="middle">83</text>
<line x1="566.0" y1="832.0" x2="566.0" y2="956.0" stroke="#2e7d32" stroke-width="1.4" marker-start="url(#fr)" marker-end="url(#fr)"/>
<rect x="551.5" y="886.0" width="29" height="16" rx="8" fill="#2e7d32"/><text x="566.0" y="894.5" font-size="10.5" font-weight="700" fill="#fff" text-anchor="middle" dominant-baseline="middle">155</text>
<line x1="218.0" y1="404.0" x2="374.0" y2="404.0" stroke="#2e7d32" stroke-width="1.4" marker-start="url(#fr)" marker-end="url(#fr)"/>
<rect x="281.5" y="396.0" width="29" height="16" rx="8" fill="#2e7d32"/><text x="296.0" y="404.5" font-size="10.5" font-weight="700" fill="#fff" text-anchor="middle" dominant-baseline="middle">195</text>
<g transform="rotate(0 512.0 500.0)"><rect x="468.0" y="483.0" width="88" height="34" rx="4" fill="#fff" fill-opacity="0.92" stroke="#333" stroke-width="0.7"/><text x="512.0" y="494.0" font-size="12" text-anchor="middle" dominant-baseline="middle" class="lbl">SALOTTO</text><text x="512.0" y="508.0" font-size="10.5" fill="#444" text-anchor="middle" dominant-baseline="middle">13,98 m²</text></g>
<g transform="rotate(0 436.0 780.0)"><rect x="392.0" y="763.0" width="88" height="34" rx="4" fill="#fff" fill-opacity="0.92" stroke="#333" stroke-width="0.7"/><text x="436.0" y="774.0" font-size="12" text-anchor="middle" dominant-baseline="middle" class="lbl">CAMERA</text><text x="436.0" y="788.0" font-size="10.5" fill="#444" text-anchor="middle" dominant-baseline="middle">10,08 m²</text></g>
<g transform="rotate(0 470.0 876.0)"><rect x="426.0" y="859.0" width="88" height="34" rx="4" fill="#fff" fill-opacity="0.92" stroke="#333" stroke-width="0.7"/><text x="470.0" y="870.0" font-size="12" text-anchor="middle" dominant-baseline="middle" class="lbl">CUCINA</text><text x="470.0" y="884.0" font-size="10.5" fill="#444" text-anchor="middle" dominant-baseline="middle">6,99 m²</text></g>
<g transform="rotate(0 274.0 340.0)"><rect x="230.0" y="323.0" width="88" height="34" rx="4" fill="#fff" fill-opacity="0.92" stroke="#333" stroke-width="0.7"/><text x="274.0" y="334.0" font-size="12" text-anchor="middle" dominant-baseline="middle" class="lbl">BAGNO</text><text x="274.0" y="348.0" font-size="10.5" fill="#444" text-anchor="middle" dominant-baseline="middle">6,75 m²</text></g>
<g transform="rotate(-90 286.0 768.0)"><rect x="205.8" y="751.0" width="160" height="34" rx="4" fill="#fff" fill-opacity="0.92" stroke="#333" stroke-width="0.7"/><text x="286.0" y="762.0" font-size="12" text-anchor="middle" dominant-baseline="middle" class="lbl">INGRESSO · PRANZO</text><text x="286.0" y="776.0" font-size="10.5" fill="#444" text-anchor="middle" dominant-baseline="middle">17,38 m²</text></g>
</g>
<rect x="174.0" y="924.0" width="10" height="24" fill="#ffca28" stroke="#111" stroke-width="1.2"/>
<g class="dim">
<line x1="150.0" y1="194.0" x2="150.0" y2="151.0" class="ext"/>
<line x1="666.0" y1="194.0" x2="666.0" y2="151.0" class="ext"/>
<line x1="150.0" y1="156.0" x2="666.0" y2="156.0"/>
<line x1="146.0" y1="160.0" x2="154.0" y2="152.0" class="tick"/>
<line x1="662.0" y1="160.0" x2="670.0" y2="152.0" class="tick"/>
<text x="408.0" y="147.0" font-size="12" transform="rotate(0.0 408.0 147.0)" text-anchor="middle" dominant-baseline="middle">6,45</text></g>
<g class="dim">
<line x1="144.0" y1="200.0" x2="101.0" y2="200.0" class="ext"/>
<line x1="144.0" y1="1028.0" x2="101.0" y2="1028.0" class="ext"/>
<line x1="106.0" y1="200.0" x2="106.0" y2="1028.0"/>
<line x1="110.0" y1="196.0" x2="102.0" y2="204.0" class="tick"/>
<line x1="110.0" y1="1024.0" x2="102.0" y2="1032.0" class="tick"/>
<text x="97.0" y="614.0" font-size="12" transform="rotate(90.0 97.0 614.0)" text-anchor="middle" dominant-baseline="middle">10,35</text></g>
<text x="816.0" y="150" font-size="13" class="lbl" fill="#1d1d1d">CONCEPT</text>
<text x="816.0" y="170" font-size="12.5" fill="#333" xml:space="preserve">Distribuzione invariata. Il corridoio (17 m², il 31%</text>
<text x="816.0" y="188" font-size="12.5" fill="#333" xml:space="preserve">della casa) diventa uno spazio abitabile: ingresso,</text>
<text x="816.0" y="206" font-size="12.5" fill="#333" xml:space="preserve">zona pranzo sotto la finestra F2 e guardaroba.</text>
<text x="816.0" y="238" font-size="13" class="lbl" fill="#8a6d00">OPERE</text>
<text x="816.0" y="258" font-size="12.5" fill="#333" xml:space="preserve">• P5 camera → porta scorrevole esterno muro</text>
<text x="816.0" y="276" font-size="12.5" fill="#333" xml:space="preserve">  (risolve il conflitto anta / comodino)</text>
<text x="816.0" y="308" font-size="13" class="lbl" fill="#2e7d32">VANTAGGI</text>
<text x="816.0" y="328" font-size="12.5" fill="#333" xml:space="preserve">• Costo minimo, nessuna pratica edilizia</text>
<text x="816.0" y="346" font-size="12.5" fill="#333" xml:space="preserve">• Salotto e camera separati e silenziosi</text>
<text x="816.0" y="364" font-size="12.5" fill="#333" xml:space="preserve">• Guardaroba 200 cm + scarpiera all'ingresso</text>
<text x="816.0" y="382" font-size="12.5" fill="#333" xml:space="preserve">• Divano a 1,60 m dalla TV: fino a 55"</text>
<text x="816.0" y="414" font-size="13" class="lbl" fill="#c62828">SVANTAGGI</text>
<text x="816.0" y="434" font-size="12.5" fill="#333" xml:space="preserve">• Cucina chiusa 7 m² senza tavolo</text>
<text x="816.0" y="452" font-size="12.5" fill="#333" xml:space="preserve">• Camera senza armadio al suo interno</text>
<text x="816.0" y="470" font-size="12.5" fill="#333" xml:space="preserve">• Pranzo nel passaggio verso le stanze</text>
<text x="816.0" y="502" font-size="13" class="lbl">SUPERFICI NETTE</text>
<text x="816.0" y="522" font-size="12.5">Salotto</text><text x="1176.0" y="522" font-size="12.5" text-anchor="end" font-weight="600">13,98 m²</text><line x1="816.0" y1="527" x2="1176.0" y2="527" stroke="#e3e3e3"/>
<text x="816.0" y="541" font-size="12.5">Camera</text><text x="1176.0" y="541" font-size="12.5" text-anchor="end" font-weight="600">10,08 m²</text><line x1="816.0" y1="546" x2="1176.0" y2="546" stroke="#e3e3e3"/>
<text x="816.0" y="560" font-size="12.5">Cucina</text><text x="1176.0" y="560" font-size="12.5" text-anchor="end" font-weight="600">6,99 m²</text><line x1="816.0" y1="565" x2="1176.0" y2="565" stroke="#e3e3e3"/>
<text x="816.0" y="579" font-size="12.5">Bagno</text><text x="1176.0" y="579" font-size="12.5" text-anchor="end" font-weight="600">6,75 m²</text><line x1="816.0" y1="584" x2="1176.0" y2="584" stroke="#e3e3e3"/>
<text x="816.0" y="598" font-size="12.5">Ingresso · pranzo</text><text x="1176.0" y="598" font-size="12.5" text-anchor="end" font-weight="600">17,38 m²</text><line x1="816.0" y1="603" x2="1176.0" y2="603" stroke="#e3e3e3"/>
<text x="816.0" y="639" font-size="13" class="lbl" fill="#1d1d1d">BEST PRACTICE VERIFICATE</text>
<text x="816.0" y="659" font-size="12.5" fill="#333" xml:space="preserve">• Passaggi principali ≥ 90 cm · lato letto ≥ 60 cm</text>
<text x="816.0" y="677" font-size="12.5" fill="#333" xml:space="preserve">• Fronte armadio ≥ 90 cm · piede letto ≥ 70 cm</text>
<text x="816.0" y="695" font-size="12.5" fill="#333" xml:space="preserve">• Tavolino–divano 40-45 cm</text>
<text x="816.0" y="713" font-size="12.5" fill="#333" xml:space="preserve">• TV: distanza ≈ 1,2-1,5 × diagonale</text>
<text x="816.0" y="731" font-size="12.5" fill="#333" xml:space="preserve">• Corsia cucina ≥ 120 cm · frigo-lavello-cottura</text>
<text x="816.0" y="749" font-size="12.5" fill="#333" xml:space="preserve">• Dietro la sedia per alzarsi ≥ 75 cm</text>
<text x="816.0" y="767" font-size="12.5" fill="#333" xml:space="preserve">• WC: asse ≥ 40 cm dal muro, ≥ 55 cm libero davanti</text>
<g transform="translate(816.0,799)"><text font-size="13" class="lbl">LEGENDA</text>
<g transform="translate(0,16)"><rect width="26" height="12" fill="#262626"/><text x="36" y="10" font-size="12">Muro esistente</text></g>
<g transform="translate(190,16)"><rect width="26" height="12" fill="#f9c80e" stroke="#b28704" stroke-dasharray="4 2"/><text x="36" y="10" font-size="12">Da demolire</text></g>
<g transform="translate(0,40)"><rect width="26" height="12" fill="#dbeafb" stroke="#1565c0" stroke-width="2"/><text x="36" y="10" font-size="12">Finestra</text></g>
<g transform="translate(190,40)"><path d="M 0 12 L 0 -6 A 18 18 0 0 1 18 12" fill="none" stroke="#c62828" stroke-width="1.5"/><text x="36" y="10" font-size="12">Porta</text></g>
<g transform="translate(0,64)"><line x1="0" y1="6" x2="26" y2="6" stroke="#2e7d32" stroke-width="1.5"/><rect x="6" y="0" width="14" height="12" rx="6" fill="#2e7d32"/><text x="36" y="10" font-size="12">Verifica spazio (cm)</text></g>
</g></svg>