<svg xmlns="http://www.w3.org/2000/svg" width="175mm" height="180mm" viewBox="0 0 1400 1440" font-family="Helvetica, Arial, sans-serif">
<title>Planimetria lotto Via Isonzo - scala 1:200</title>
<defs>
  <pattern id="grid50" width="20.0" height="20.0" patternUnits="userSpaceOnUse">
    <path d="M 20.0 0 L 0 0 0 20.0" fill="none" stroke="#c9d6e3" stroke-width="0.5"/>
  </pattern>
  <pattern id="grid100" width="40.0" height="40.0" patternUnits="userSpaceOnUse">
    <rect width="40.0" height="40.0" fill="url(#grid50)"/>
    <path d="M 40.0 0 L 0 0 0 40.0" fill="none" stroke="#9fb3c8" stroke-width="0.9"/>
  </pattern>
  <pattern id="hatchGarage" width="8" height="8" patternUnits="userSpaceOnUse" patternTransform="rotate(45)">
    <line x1="0" y1="0" x2="0" y2="8" stroke="#8a8a8a" stroke-width="1"/>
  </pattern>
  <pattern id="lawn" width="14" height="14" patternUnits="userSpaceOnUse">
    <circle cx="3" cy="3" r="0.9" fill="#9cc49a"/><circle cx="10" cy="10" r="0.9" fill="#9cc49a"/>
  </pattern>
</defs>
<style>
  .dim line { stroke:#2b5d8a; stroke-width:0.8; }
  .dim .ext { stroke-width:0.5; }
  .dim .tick { stroke-width:1.4; }
  .dim text { fill:#2b5d8a; font-size:13px; font-weight:600; }
  .lbl { fill:#222; font-weight:700; letter-spacing:1.5px; }
  .note { fill:#444; font-size:11px; }
</style>
<rect width="1400" height="1440" fill="#ffffff"/>

<text x="150.0" y="60" font-size="26" class="lbl">PLANIMETRIA LOTTO — VIA ISONZO</text>
<text x="150.0" y="86" font-size="13" fill="#555">Ridisegno digitale del “Tipo planimetrico – Allegato 1” · misure in metri · Nord in alto</text>
<polygon points="222.9,1247.5 768.9,1247.5 768.9,207.5 150.0,170.0" fill="#f3f8f1"/>
<polygon points="222.9,1247.5 768.9,1247.5 768.9,207.5 150.0,170.0" fill="url(#lawn)"/>
<g><rect x="366.9" y="848.4" width="390.0" height="234.0" fill="#ffffff"/>
<rect x="366.9" y="848.4" width="390.0" height="234.0" fill="url(#grid100)"/></g>
<path d="M 354.9,1094.4 768.9,1094.4 768.9,836.4 354.9,836.4 Z M 366.9,848.4 756.9,848.4 756.9,1082.4 366.9,1082.4 Z" fill="#2f2f2f" fill-rule="evenodd"/>
<polygon points="179.6,608.4 287.4,601.1 272.2,375.7 164.4,382.9" fill="url(#hatchGarage)" stroke="#2f2f2f" stroke-width="3"/>
<g transform="rotate(-86.13 225.9 492.0)"><rect x="173.9" y="480.0" width="104" height="24" fill="#fff" stroke="#2f2f2f" stroke-width="0.8"/><text x="225.9" y="497.0" text-anchor="middle" font-size="14" class="lbl">GARAGE</text></g>
<polygon points="222.9,1247.5 768.9,1247.5 768.9,207.5 150.0,170.0" fill="none" stroke="#111" stroke-width="3.2" stroke-linejoin="miter"/>
<rect x="217.9" y="1242.5" width="10" height="10" fill="#fff" stroke="#111" stroke-width="1.5"/>
<rect x="337.9" y="1242.5" width="10" height="10" fill="#fff" stroke="#111" stroke-width="1.5"/>
<rect x="727.9" y="1242.5" width="10" height="10" fill="#fff" stroke="#111" stroke-width="1.5"/>
<rect x="763.9" y="1242.5" width="10" height="10" fill="#fff" stroke="#111" stroke-width="1.5"/>
<rect x="451.9" y="931.4" width="220" height="62" rx="3" fill="#fff" fill-opacity="0.92" stroke="#2f2f2f" stroke-width="0.8"/>
<text x="561.9" y="955.4" text-anchor="middle" font-size="18" class="lbl">ABITAZIONE</text>
<text x="561.9" y="973.4" text-anchor="middle" class="note">Sup. lorda 66,76 m²</text>
<text x="561.9" y="987.4" text-anchor="middle" class="note">Sup. interna ≈ 57,04 m² (muri 30 cm)</text>
<rect x="130.0" y="1315.5" width="726.9" height="60" fill="#e6e6e6"/>
<line x1="130.0" y1="1345.5" x2="856.9" y2="1345.5" stroke="#fff" stroke-width="2" stroke-dasharray="18 12"/>
<text x="493.4" y="1351.5" text-anchor="middle" font-size="17" class="lbl" fill="#333">VIA ISONZO</text>
<g class="dim">
<line x1="150.2" y1="166.0" x2="152.8" y2="124.1" class="ext"/>
<line x1="769.1" y1="203.5" x2="771.6" y2="161.6" class="ext"/>
<line x1="152.4" y1="130.1" x2="771.3" y2="167.6"/>
<line x1="147.1" y1="134.8" x2="157.7" y2="125.4" class="tick"/>
<line x1="766.0" y1="172.3" x2="776.6" y2="162.9" class="tick"/>
<text x="462.4" y="139.9" transform="rotate(3.47 462.4 139.9)" text-anchor="middle" dominant-baseline="middle">15,50</text>
</g>
<g class="dim">
<line x1="222.9" y1="1251.5" x2="222.9" y2="1289.5" class="ext"/>
<line x1="768.9" y1="1251.5" x2="768.9" y2="1289.5" class="ext"/>
<line x1="222.9" y1="1283.5" x2="768.9" y2="1283.5"/>
<line x1="217.9" y1="1278.5" x2="227.9" y2="1288.5" class="tick"/>
<line x1="763.9" y1="1278.5" x2="773.9" y2="1288.5" class="tick"/>
<text x="495.9" y="1292.5" transform="rotate(0.00 495.9 1292.5)" text-anchor="middle" dominant-baseline="middle">13,65</text>
</g>
<g class="dim">
<line x1="218.9" y1="1247.8" x2="153.0" y2="1252.3" class="ext"/>
<line x1="146.0" y1="170.3" x2="80.2" y2="174.7" class="ext"/>
<line x1="159.0" y1="1251.9" x2="86.1" y2="174.3"/>
<line x1="164.3" y1="1256.5" x2="153.7" y2="1247.2" class="tick"/>
<line x1="91.5" y1="179.0" x2="80.8" y2="169.7" class="tick"/>
<text x="113.6" y="713.7" transform="rotate(86.13 113.6 713.7)" text-anchor="middle" dominant-baseline="middle">27,00</text>
</g>
<g class="dim">
<line x1="772.9" y1="1247.5" x2="878.9" y2="1247.5" class="ext"/>
<line x1="772.9" y1="207.5" x2="878.9" y2="207.5" class="ext"/>
<line x1="872.9" y1="1247.5" x2="872.9" y2="207.5"/>
<line x1="867.9" y1="1252.5" x2="877.9" y2="1242.5" class="tick"/>
<line x1="867.9" y1="212.5" x2="877.9" y2="202.5" class="tick"/>
<text x="881.9" y="727.5" transform="rotate(90.00 881.9 727.5)" text-anchor="middle" dominant-baseline="middle">26,00</text>
</g>
<g class="dim">
<line x1="354.9" y1="832.4" x2="354.9" y2="802.4" class="ext"/>
<line x1="768.9" y1="832.4" x2="768.9" y2="802.4" class="ext"/>
<line x1="354.9" y1="808.4" x2="768.9" y2="808.4"/>
<line x1="349.9" y1="813.4" x2="359.9" y2="803.4" class="tick"/>
<line x1="763.9" y1="813.4" x2="773.9" y2="803.4" class="tick"/>
<text x="561.9" y="799.4" transform="rotate(0.00 561.9 799.4)" text-anchor="middle" dominant-baseline="middle">10,35</text>
</g>
<g class="dim">
<line x1="179.9" y1="612.4" x2="181.9" y2="642.3" class="ext"/>
<line x1="287.7" y1="605.1" x2="289.7" y2="635.1" class="ext"/>
<line x1="181.5" y1="636.4" x2="289.3" y2="629.1"/>
<line x1="176.2" y1="631.7" x2="186.9" y2="641.0" class="tick"/>
<line x1="284.0" y1="624.4" x2="294.6" y2="633.7" class="tick"/>
<text x="236.0" y="641.7" transform="rotate(-3.87 236.0 641.7)" text-anchor="middle" dominant-baseline="middle">2,70</text>
</g>
<g class="dim">
<line x1="328.9" y1="182.4" x2="326.9" y2="182.4" class="ext"/>
<line x1="328.9" y1="382.4" x2="326.9" y2="382.4" class="ext"/>
<line x1="332.9" y1="182.4" x2="332.9" y2="382.4"/>
<line x1="337.9" y1="177.4" x2="327.9" y2="187.4" class="tick"/>
<line x1="337.9" y1="377.4" x2="327.9" y2="387.4" class="tick"/>
<text x="323.9" y="282.4" transform="rotate(90.00 323.9 282.4)" text-anchor="middle" dominant-baseline="middle">5,00</text>
</g>
<g class="dim">
<line x1="328.9" y1="382.4" x2="326.9" y2="382.4" class="ext"/>
<line x1="328.9" y1="608.4" x2="326.9" y2="608.4" class="ext"/>
<line x1="332.9" y1="382.4" x2="332.9" y2="608.4"/>
<line x1="337.9" y1="377.4" x2="327.9" y2="387.4" class="tick"/>
<line x1="337.9" y1="603.4" x2="327.9" y2="613.4" class="tick"/>
<text x="323.9" y="495.4" transform="rotate(90.00 323.9 495.4)" text-anchor="middle" dominant-baseline="middle">5,65</text>
</g>
<g class="dim">
<line x1="328.9" y1="608.4" x2="326.9" y2="608.4" class="ext"/>
<line x1="328.9" y1="836.4" x2="326.9" y2="836.4" class="ext"/>
<line x1="332.9" y1="608.4" x2="332.9" y2="836.4"/>
<line x1="337.9" y1="603.4" x2="327.9" y2="613.4" class="tick"/>
<line x1="337.9" y1="831.4" x2="327.9" y2="841.4" class="tick"/>
<text x="323.9" y="722.4" transform="rotate(90.00 323.9 722.4)" text-anchor="middle" dominant-baseline="middle">5,70</text>
</g>
<g class="dim">
<line x1="328.9" y1="836.4" x2="326.9" y2="836.4" class="ext"/>
<line x1="328.9" y1="1094.4" x2="326.9" y2="1094.4" class="ext"/>
<line x1="332.9" y1="836.4" x2="332.9" y2="1094.4"/>
<line x1="337.9" y1="831.4" x2="327.9" y2="841.4" class="tick"/>
<line x1="337.9" y1="1089.4" x2="327.9" y2="1099.4" class="tick"/>
<text x="323.9" y="965.4" transform="rotate(90.00 323.9 965.4)" text-anchor="middle" dominant-baseline="middle">6,45</text>
</g>
<g class="dim derived">
<line x1="328.9" y1="1094.4" x2="326.9" y2="1094.4" class="ext"/>
<line x1="328.9" y1="1247.5" x2="326.9" y2="1247.5" class="ext"/>
<line x1="332.9" y1="1094.4" x2="332.9" y2="1247.5"/>
<line x1="337.9" y1="1089.4" x2="327.9" y2="1099.4" class="tick"/>
<line x1="337.9" y1="1242.5" x2="327.9" y2="1252.5" class="tick"/>
<text x="323.9" y="1171.0" transform="rotate(90.00 323.9 1171.0)" text-anchor="middle" dominant-baseline="middle">≈3,83</text>
</g>
<g transform="translate(1250,330)">
  <circle r="42" fill="none" stroke="#111" stroke-width="1.5"/>
  <line x1="-52" y1="0" x2="52" y2="0" stroke="#111" stroke-width="0.8"/>
  <line x1="0" y1="52" x2="0" y2="-52" stroke="#111" stroke-width="0.8"/>
  <polygon points="0,-44 12,12 0,4" fill="#111"/>
  <polygon points="0,-44 -12,12 0,4" fill="#fff" stroke="#111" stroke-width="1"/>
  <text y="-60" text-anchor="middle" font-size="18" class="lbl">N</text>
</g>
<g transform="translate(1040,470)"><text y="-12" font-size="12" class="lbl">SCALA GRAFICA</text>
<rect x="0.0" y="0" width="40.0" height="8" fill="#111" stroke="#111" stroke-width="1"/>
<rect x="40.0" y="0" width="40.0" height="8" fill="#fff" stroke="#111" stroke-width="1"/>
<rect x="80.0" y="0" width="40.0" height="8" fill="#111" stroke="#111" stroke-width="1"/>
<rect x="120.0" y="0" width="40.0" height="8" fill="#fff" stroke="#111" stroke-width="1"/>
<rect x="160.0" y="0" width="40.0" height="8" fill="#111" stroke="#111" stroke-width="1"/>
<text x="0.0" y="24" text-anchor="middle" font-size="11">0</text>
<text x="40.0" y="24" text-anchor="middle" font-size="11">1</text>
<text x="80.0" y="24" text-anchor="middle" font-size="11">2</text>
<text x="120.0" y="24" text-anchor="middle" font-size="11">3</text>
<text x="160.0" y="24" text-anchor="middle" font-size="11">4</text>
<text x="200.0" y="24" text-anchor="middle" font-size="11">5</text>
<text x="210.0" y="24" font-size="11">m</text></g>
<g transform="translate(1040,560)"><text y="0" font-size="12" class="lbl">LEGENDA</text>
<g transform="translate(0,16)"><rect width="26" height="14" fill="#2f2f2f"/><text x="36" y="11" font-size="12">Muratura perimetrale (30 cm, ipotesi)</text></g>
<g transform="translate(0,42)"><rect width="26" height="14" fill="url(#hatchGarage)" stroke="#2f2f2f" stroke-width="1.5"/><text x="36" y="11" font-size="12">Garage (2,70 × 5,65)</text></g>
<g transform="translate(0,68)"><rect width="26" height="14" fill="url(#grid100)" stroke="#9fb3c8"/><text x="36" y="11" font-size="12">Griglia arredo: 1 m / 50 cm</text></g>
<g transform="translate(0,94)"><rect width="26" height="14" fill="url(#lawn)" stroke="#9cc49a"/><text x="36" y="11" font-size="12">Area scoperta / giardino</text></g>
<g transform="translate(0,120)"><line x1="0" y1="7" x2="26" y2="7" stroke="#111" stroke-width="3"/><text x="36" y="11" font-size="12">Confine di proprietà</text></g>
<g transform="translate(0,146)"><rect x="8" y="2" width="10" height="10" fill="#fff" stroke="#111" stroke-width="1.5"/><text x="36" y="11" font-size="12">Pilastro recinzione (indicativo)</text></g>
</g>
<g transform="translate(1040,760)"><text y="0" font-size="12" class="lbl">DATI DIMENSIONALI</text>
<text x="0" y="22" font-size="12" fill="#555">Lotto</text><text x="310" y="22" font-size="12" text-anchor="end" font-weight="600">≈ 384,99 m²</text>
<line x1="0" y1="28" x2="310" y2="28" stroke="#ddd" stroke-width="0.8"/>
<text x="0" y="42" font-size="12" fill="#555">Abitazione (lorda)</text><text x="310" y="42" font-size="12" text-anchor="end" font-weight="600">10,35 × 6,45 = 66,76 m²</text>
<line x1="0" y1="48" x2="310" y2="48" stroke="#ddd" stroke-width="0.8"/>
<text x="0" y="62" font-size="12" fill="#555">Abitazione (interna)</text><text x="310" y="62" font-size="12" text-anchor="end" font-weight="600">≈ 57,04 m²</text>
<line x1="0" y1="68" x2="310" y2="68" stroke="#ddd" stroke-width="0.8"/>
<text x="0" y="82" font-size="12" fill="#555">Garage</text><text x="310" y="82" font-size="12" text-anchor="end" font-weight="600">2,70 × 5,65 = 15,26 m²</text>
<line x1="0" y1="88" x2="310" y2="88" stroke="#ddd" stroke-width="0.8"/>
<text x="0" y="102" font-size="12" fill="#555">Distanza casa–strada</text><text x="310" y="102" font-size="12" text-anchor="end" font-weight="600">≈ 3,83 m (derivata)</text>
<line x1="0" y1="108" x2="310" y2="108" stroke="#ddd" stroke-width="0.8"/>
</g>
<g transform="translate(1040,900)">
<text x="0" y="0" font-size="12" class="lbl">NOTE</text>
<text x="0" y="17" font-size="11" fill="#555">Quote in metri, come da Allegato 1 (scala 1:200).</text>
<text x="0" y="34" font-size="11" fill="#555">Il documento originale non riporta finestre, porte</text>
<text x="0" y="51" font-size="11" fill="#555">né tramezzi interni: la sagoma dell'abitazione è</text>
<text x="0" y="68" font-size="11" fill="#555">lasciata libera con griglia per il posizionamento</text>
<text x="0" y="85" font-size="11" fill="#555">dell'arredo. Spessore muri 30 cm = ipotesi.</text>
<text x="0" y="102" font-size="11" fill="#555">Quote con ≈ ricavate per differenza.</text>
<text x="0" y="119" font-size="11" fill="#555">Stampa al 100% → scala 1:200.</text>
</g>
<rect x="20" y="20" width="1360" height="1400" fill="none" stroke="#111" stroke-width="1.5"/>
</svg>